<?xml version="1.0" encoding="UTF-8"?>
<!DOCTYPE svg PUBLIC "-//W3C//DTD SVG 1.1//EN" "http://www.w3.org/Graphics/SVG/1.1/DTD/svg11.dtd">
<svg xmlns="http://www.w3.org/2000/svg" version="1.1" width="512px" height="512px" style="shape-rendering:geometricPrecision; text-rendering:geometricPrecision; image-rendering:optimizeQuality; fill-rule:evenodd; clip-rule:evenodd" xmlns:xlink="http://www.w3.org/1999/xlink">
<g><path style="opacity:0.972" fill="#fefffe" d="M 45.5,118.5 C 185.5,118.333 325.5,118.5 465.5,119C 477.893,124.958 481.06,134.125 475,146.5C 472.407,149.543 469.24,151.71 465.5,153C 325.5,153.667 185.5,153.667 45.5,153C 33.0636,147.103 29.8969,137.936 36,125.5C 38.7901,122.535 41.9567,120.202 45.5,118.5 Z"/></g>
<g><path style="opacity:0.947" fill="#fefffe" d="M 49.5,237.5 C 186.834,237.333 324.167,237.5 461.5,238C 476.27,241.271 481.103,250.104 476,264.5C 472.652,269.845 467.818,272.678 461.5,273C 324.167,273.667 186.833,273.667 49.5,273C 39.2987,271.631 33.632,265.798 32.5,255.5C 33.4938,244.88 39.1605,238.88 49.5,237.5 Z"/></g>
<g><path style="opacity:0.972" fill="#fefffe" d="M 45.5,357.5 C 185.5,357.333 325.5,357.5 465.5,358C 477.889,363.916 481.056,373.083 475,385.5C 472.441,388.531 469.274,390.698 465.5,392C 325.5,392.667 185.5,392.667 45.5,392C 33.1072,386.048 29.9405,376.881 36,364.5C 38.8249,361.524 41.9915,359.191 45.5,357.5 Z"/></g>
</svg>
